<svg xmlns="http://www.w3.org/2000/svg" xmlns:xlink="http://www.w3.org/1999/xlink" xmlns:serif="http://www.serif.com/" width="100%" height="100%" viewBox="0 0 1242 721" xml:space="preserve" style="fill-rule:evenodd;clip-rule:evenodd;stroke-linejoin:round;stroke-miterlimit:2;"><g id="Layer-1" serif:id="Layer 1"><path d="M384.721,661.281l-7.896,0l0,9.925l-3.929,0l-0,6.904l3.929,0l0,18.1c0,4.159 0.996,7.28 2.958,9.275c1.967,2.005 4.713,3.021 8.163,3.021c0.996,0 2.092,-0.091 3.271,-0.275c1.146,-0.183 2.304,-0.437 3.446,-0.758l0.758,-0.217l-0,-7.05l-1.388,0l-0.45,0.104c-0.358,0.171 -0.954,0.38 -1.775,0.638c-1.916,0.6 -4.096,0.429 -5.187,-0.071c-0.563,-0.262 -0.954,-0.629 -1.204,-1.146c-0.35,-0.691 -0.555,-1.454 -0.605,-2.258c-0.062,-0.933 -0.091,-2.263 -0.091,-3.988l-0,-15.375l10.7,0l-0,-6.904l-10.7,0l-0,-9.925Z" style="fill:#383739;fill-rule:nonzero;"></path><path d="M442.8,671.254c-0.321,-0.029 -0.804,-0.05 -1.45,-0.05c-1.642,0 -3.338,0.429 -5.05,1.267c-1.2,0.591 -2.554,1.479 -4.05,2.671l-0,-3.938l-7.896,0l0,36.617l7.896,-0l-0,-25.109c1.187,-1.1 2.454,-1.95 3.767,-2.52c1.408,-0.625 2.837,-0.938 4.254,-0.938c0.654,0 1.216,0.021 1.675,0.042c0.416,0.029 0.796,0.091 1.162,0.2l1.634,0.033l-0,-7.987l-0.875,-0.138c-0.392,-0.062 -0.746,-0.112 -1.067,-0.15" style="fill:#383739;fill-rule:nonzero;"></path><path d="M498.332,676.723l-0,-5.517l-26.384,0l0,6.871l16.338,0l-17.084,24.075l0,5.671l27.471,-0l0,-6.938l-17.516,0l17.175,-24.162Z" style="fill:#383739;fill-rule:nonzero;"></path><path d="M541.478,694.797l-8.701,-23.591l-8.512,-0l12.938,33.883l-6.642,15.475l8.504,0l19.404,-49.358l-8.312,-0l-8.679,23.591Z" style="fill:#383739;fill-rule:nonzero;"></path><path d="M630.945,673.537c-1.013,-1.154 -2.221,-2 -3.592,-2.521c-3.104,-1.187 -7.213,-1.037 -10.404,0.892c-1.4,0.85 -2.846,2.025 -4.296,3.504c-0.867,-1.608 -1.992,-2.821 -3.371,-3.625c-3.258,-1.925 -7.896,-2.112 -11.4,-0.154c-0.983,0.55 -1.975,1.246 -2.971,2.079l0,-2.508l-7.904,-0l0,36.621l7.904,-0l0,-26.375c1.125,-1.017 2.3,-1.88 3.488,-2.546c2.475,-1.409 4.862,-1.179 6.058,-0.575c0.567,0.304 0.996,0.746 1.313,1.379c0.325,0.637 0.554,1.579 0.662,2.787c0.121,1.334 0.179,2.784 0.179,4.317l0,21.013l7.896,-0l0,-23.771c0,-0.684 -0.012,-1.275 -0.046,-1.779l-0.05,-0.759c1.263,-1.146 2.496,-2.046 3.675,-2.683c2.554,-1.363 4.817,-1.092 5.971,-0.504c0.571,0.304 1,0.746 1.313,1.383c0.329,0.638 0.554,1.575 0.662,2.783c0.125,1.309 0.183,2.763 0.183,4.317l0,21.013l7.9,-0l0,-23.771c0,-2.467 -0.279,-4.559 -0.812,-6.221c-0.546,-1.7 -1.342,-3.142 -2.358,-4.296" style="fill:#383739;fill-rule:nonzero;"></path><path d="M686.206,689.837l-0,7.967c-1.129,0.967 -2.346,1.8 -3.621,2.479c-1.325,0.713 -2.838,1.067 -4.488,1.067c-1.87,-0 -3.274,-0.417 -4.183,-1.242c-0.896,-0.812 -1.333,-2.025 -1.333,-3.712c-0,-1.475 0.391,-2.575 1.204,-3.35c0.879,-0.859 2.025,-1.513 3.404,-1.929c1.234,-0.375 2.888,-0.671 4.925,-0.871c1.567,-0.163 2.929,-0.3 4.092,-0.409m3.704,-16.691c-1.412,-1.054 -3.021,-1.796 -4.779,-2.188c-3.121,-0.712 -7.788,-0.854 -12.354,-0.016c-1.992,0.37 -3.575,0.72 -4.709,1.05l-0.75,0.212l0,7.729l1.38,0l0.404,-0.079c1.746,-0.733 3.516,-1.304 5.262,-1.692c3.2,-0.712 5.467,-0.675 7.663,-0.354c0.925,0.134 1.704,0.396 2.325,0.8c0.579,0.354 1.021,0.846 1.341,1.496c0.342,0.7 0.513,1.654 0.513,2.842l-0,0.125c-2.729,0.171 -5.296,0.408 -7.625,0.712c-2.733,0.354 -5.146,1 -7.158,1.925c-2.371,1.071 -4.142,2.554 -5.259,4.413c-1.1,1.837 -1.658,4.071 -1.658,6.646c-0,1.675 0.304,3.287 0.908,4.791c0.604,1.513 1.429,2.809 2.454,3.854c1.059,1.063 2.3,1.896 3.705,2.484c1.404,0.591 2.904,0.887 4.454,0.887c1.837,0 3.254,-0.154 4.333,-0.475c1,-0.304 2.067,-0.746 3.15,-1.308c0.821,-0.408 1.658,-0.95 2.483,-1.617c0.075,-0.054 0.142,-0.108 0.213,-0.171l-0,2.609l7.867,-0l-0,-24.663c-0,-2.291 -0.338,-4.283 -1.009,-5.896c-0.687,-1.675 -1.741,-3.058 -3.154,-4.116" style="fill:#383739;fill-rule:nonzero;"></path><rect x="729.716" y="659.393" width="8.704" height="8.113" style="fill:#383739;"></rect><path d="M724.247,678.11l6.242,0l-0,27.28c-0,1.575 -0.075,2.92 -0.221,4.004c-0.133,0.983 -0.392,1.791 -0.771,2.416c-0.375,0.625 -0.942,1.075 -1.721,1.371c-1.154,0.438 -2.758,0.734 -4.841,0.379c-0.525,-0.087 -1.009,-0.183 -1.671,-0.308l-1.379,0l-0,7.133l0.883,0.138c0.808,0.121 1.625,0.212 2.437,0.283c0.825,0.067 1.575,0.096 2.234,0.096c3.979,0 7.162,-1.142 9.466,-3.387c2.309,-2.259 3.484,-5.538 3.484,-9.742l-0,-36.567l-14.142,0l0,6.904Z" style="fill:#383739;fill-rule:nonzero;"></path><path d="M870.011,670.249c-2.025,0 -3.983,0.45 -5.808,1.338c-1.196,0.583 -2.413,1.35 -3.629,2.279l-0,-2.663l-7.9,0l-0,36.621l7.9,0l-0,-26.337c1.275,-1.042 2.591,-1.905 3.925,-2.58c2.791,-1.404 5.612,-1.212 6.991,-0.52c0.663,0.329 1.163,0.82 1.53,1.491c0.37,0.7 0.629,1.684 0.762,2.917c0.15,1.329 0.229,2.783 0.229,4.325l0,20.704l7.896,0l0,-23.458c0,-4.479 -1.05,-7.979 -3.129,-10.4c-2.108,-2.467 -5.058,-3.717 -8.767,-3.717" style="fill:#383739;fill-rule:nonzero;"></path><path d="M934,689.837l0,7.967c-1.129,0.971 -2.345,1.8 -3.62,2.479c-1.325,0.713 -2.838,1.067 -4.488,1.067c-1.871,-0 -3.275,-0.417 -4.187,-1.242c-0.896,-0.808 -1.33,-2.025 -1.33,-3.712c0,-1.475 0.392,-2.575 1.205,-3.35c0.879,-0.859 2.029,-1.513 3.404,-1.929c1.233,-0.375 2.887,-0.671 4.925,-0.871c1.566,-0.163 2.929,-0.3 4.091,-0.409m3.705,-16.691c-1.409,-1.054 -3.017,-1.796 -4.784,-2.188c-3.112,-0.712 -7.787,-0.854 -12.354,-0.016c-1.992,0.37 -3.575,0.725 -4.708,1.05l-0.754,0.212l-0,7.729l1.387,0l0.404,-0.079c1.746,-0.733 3.517,-1.304 5.263,-1.692c3.2,-0.712 5.471,-0.675 7.662,-0.354c0.925,0.134 1.704,0.396 2.329,0.8c0.575,0.354 1.013,0.846 1.338,1.5c0.342,0.692 0.512,1.646 0.512,2.838l0,0.125c-2.733,0.171 -5.295,0.408 -7.625,0.712c-2.733,0.354 -5.141,1 -7.162,1.925c-2.371,1.071 -4.138,2.559 -5.254,4.413c-1.104,1.837 -1.663,4.071 -1.663,6.646c0,1.666 0.304,3.283 0.913,4.791c0.604,1.517 1.433,2.813 2.454,3.854c1.062,1.063 2.304,1.896 3.7,2.484c1.404,0.591 2.908,0.887 4.458,0.887c1.838,0 3.254,-0.154 4.334,-0.475c1,-0.304 2.062,-0.746 3.154,-1.308c0.821,-0.413 1.658,-0.954 2.483,-1.617c0.071,-0.05 0.138,-0.108 0.208,-0.171l0,2.609l7.867,-0l0,-24.663c0,-2.283 -0.337,-4.275 -1.008,-5.896c-0.688,-1.675 -1.742,-3.058 -3.154,-4.116" style="fill:#383739;fill-rule:nonzero;"></path><path d="M992.37,678.025c0.896,0.204 1.93,0.575 3.075,1.1l0,18.762c-1.175,0.963 -2.433,1.746 -3.741,2.33c-1.404,0.633 -2.813,0.95 -4.184,0.95c-2.495,-0 -4.25,-0.896 -5.354,-2.738c-1.191,-1.967 -1.8,-4.925 -1.8,-8.779c0,-3.971 0.784,-7.025 2.325,-9.063c1.5,-1.979 3.521,-2.941 6.188,-2.941c1.254,-0 2.425,0.125 3.491,0.379m3.075,-6.104c-0.937,-0.446 -1.845,-0.8 -2.712,-1.063c-2.925,-0.875 -7.3,-0.937 -10.875,0.775c-1.908,0.913 -3.563,2.196 -4.908,3.809c-1.455,1.741 -2.605,3.8 -3.425,6.125c-0.825,2.312 -1.238,5.075 -1.238,8.208c0,2.983 0.325,5.679 0.963,7.992c0.65,2.358 1.591,4.366 2.795,5.987c1.213,1.638 2.709,2.896 4.442,3.746c1.733,0.85 3.642,1.283 5.671,1.283c1.25,0 2.371,-0.121 3.342,-0.358c0.937,-0.225 1.866,-0.554 2.758,-0.975c0.937,-0.442 1.779,-0.929 2.504,-1.471c0.217,-0.162 0.442,-0.342 0.683,-0.529l0,2.371l7.896,-0l0,-50.192l-7.896,0l0,14.292Z" style="fill:#383739;fill-rule:nonzero;"></path><path d="M1060.83,676.723l-0,-5.517l-26.388,0l0,6.871l16.342,0l-17.084,24.075l0,5.671l27.471,-0l0,-6.938l-17.516,0l17.175,-24.162Z" style="fill:#383739;fill-rule:nonzero;"></path><path d="M1105.3,701.69c-2.7,0 -4.717,-0.958 -6.163,-2.929c-1.496,-2.037 -2.254,-5.146 -2.254,-9.229c-0,-4.229 0.758,-7.371 2.25,-9.346c1.442,-1.912 3.458,-2.85 6.167,-2.85c2.691,0 4.691,0.934 6.125,2.85c1.483,1.975 2.237,5.121 2.237,9.346c0,4.154 -0.758,7.279 -2.25,9.283c-1.446,1.934 -3.446,2.875 -6.112,2.875m-0,-31.441c-4.929,-0 -8.959,1.729 -11.988,5.141c-2.996,3.375 -4.512,8.134 -4.512,14.142c-0,5.829 1.475,10.533 4.375,13.979c2.946,3.496 7.025,5.271 12.125,5.271c4.946,0 8.979,-1.712 11.975,-5.096c2.962,-3.346 4.466,-8.112 4.466,-14.154c0,-6.025 -1.504,-10.787 -4.462,-14.154c-3,-3.404 -7.033,-5.129 -11.979,-5.129" style="fill:#383739;fill-rule:nonzero;"></path><path d="M1116.97,653.924l-10.221,0l-6.534,13.638l6.792,-0l9.963,-13.638Z" style="fill:#383739;fill-rule:nonzero;"></path><path d="M1171.86,671.405c-0.396,-0.067 -0.746,-0.113 -1.063,-0.15c-0.321,-0.029 -0.804,-0.05 -1.45,-0.05c-1.641,-0 -3.337,0.429 -5.05,1.267c-1.204,0.587 -2.558,1.479 -4.05,2.67l0,-3.937l-7.9,-0l0,36.617l7.9,-0l0,-25.109c1.192,-1.104 2.463,-1.95 3.767,-2.525c1.408,-0.621 2.837,-0.933 4.254,-0.933c0.654,-0 1.221,0.021 1.671,0.042c0.412,0.025 0.804,0.091 1.167,0.195l1.633,0.038l-0,-7.988l-0.879,-0.137Z" style="fill:#383739;fill-rule:nonzero;"></path><path d="M428.33,529.909l85.596,-211.129l50.375,-0c42.85,-1.704 26.671,29.262 20.754,41.921l-114.25,264.916l-90.487,0l-122.454,-306.837l91.983,-0l78.483,211.129Z" style="fill:#d22229;fill-rule:nonzero;"></path><path d="M745.178,625.425c-30.95,-0 -55.441,-3.138 -73.525,-9.333c-18.091,-6.28 -34.175,-17.317 -48.266,-33.042c-26.288,-29.408 -39.442,-66.567 -39.442,-111.796c-0,-54.575 15.733,-95.417 47.433,-122.471c12.463,-10.858 27.604,-18.562 45.229,-23.229c17.63,-4.679 40.575,-6.954 68.571,-6.954l91.325,-0c21.046,0.867 23.617,13.433 24.096,21.233l-0.092,0.2l0,44.296l-101.229,0c-33.629,0 -57.133,7.5 -70.496,22.742c-12.45,14.383 -18.737,36.096 -18.737,65.233c-0,32.954 10.283,56.942 30.754,71.7c8.383,6.104 17.525,10.279 27.442,12.583c9.883,2.175 23.596,3.3 41.312,3.3l91.046,0l0,65.538l-115.421,-0Z" style="fill:#d22229;fill-rule:nonzero;"></path><path d="M892.749,318.709l0.104,0.071l165.412,-0c24.275,-0 42.746,1.821 55.696,5.254c12.975,3.433 24.571,9.992 34.788,19.338c21.512,19.608 32.354,50.645 32.354,93.325l-0.208,169.295c-0.08,11.142 -6.571,20.009 -24.759,19.625l-59.479,0l0,-198.545c0,-15.134 -3.367,-26.088 -10.217,-32.775c-6.754,-6.659 -17.787,-9.967 -33.233,-9.967l-76.25,-0l-0.117,221.662c-0.108,11.142 -6.566,20.009 -24.762,19.625l-59.521,0l0.192,-306.908Z" style="fill:#d22229;fill-rule:nonzero;"></path><path d="M322.471,131.37c-0.942,2.6 -1.354,5.567 -1.05,8.708l1.146,-8.45c-0,-0.079 -0.096,-0.179 -0.096,-0.258m6.142,-9.125c0.845,6.412 2.762,12.671 5.641,18.229c1.538,-6.129 3.229,-12.287 5.167,-18.325c-1.742,-1.342 -3.442,-2.783 -4.996,-4.2c-2.1,1.229 -4.092,2.654 -5.813,4.296m-0.604,-11.583c-0.079,2.858 0,5.641 0.192,8.516c1.258,-1.229 2.6,-2.396 3.933,-3.441c-1.446,-1.625 -2.87,-3.271 -4.125,-5.075m103.192,17.82c0.854,-0.679 1.604,-1.429 2.392,-2.204c3.421,-3.254 5.271,-6.812 5.841,-10.541c-2.112,3.541 -5.079,6.704 -8.879,9.483c0.179,1.058 0.358,2.112 0.55,3.262l0.096,0Zm-67.858,-46.404c-4.963,0.746 -9.659,1.809 -13.704,3.254c-4.192,1.525 -0.667,6.7 1.841,9.792c2.888,-4.637 6.113,-8.554 9.758,-11.629c0.675,-0.575 1.342,-1.038 2.013,-1.417l0.092,0Zm46.9,-2.196c-1.059,0 -2.413,0 -3.742,-0.133c1.838,0.688 3.646,1.45 5.45,2.208c-0.558,-0.662 -1.033,-1.412 -1.612,-2.075l-0.096,0Zm22.496,83.509c10.633,-10.463 20.175,-22.05 28.333,-33.767c5.729,-8.142 13.1,-24.542 6.496,-34.5c-5.067,-7.804 -15.967,-11.537 -27.179,-13.346c0.079,0.179 0.079,0.384 0.187,0.479c5.767,7.78 10.079,16.296 11.775,24.638c2.408,11.417 -2.967,25.808 -12.542,32.821c-2.195,1.625 -4.491,3.246 -6.791,4.791c0.391,6.221 0.291,12.563 -0.379,18.8l0.1,0.084Zm-77.134,-17.063l-1.921,9.009c17.709,0.679 36.075,-2.959 52.534,-10.53c-0.275,-3.095 -1.35,-6.154 -2.867,-9.137c-4.892,0.858 -9.95,1.267 -15.025,1.354l-32.721,9.304Zm48.504,-37.987c-5.65,-5.559 -13.77,-7.384 -23.825,-8.925l-5.27,-0.267l-0.58,0.096l-3.358,8.325c10.563,3.175 22.604,3.175 33.033,0.771m10.917,31.825c-0.292,-2.371 -0.662,-4.675 -1.058,-6.984c-2.104,0.671 -4.292,1.259 -6.504,1.734c1.166,2.475 2.108,5.25 2.683,7.95c1.717,-0.859 3.342,-1.721 4.975,-2.7l-0.096,-0Zm-62.679,57.837c3.158,1.346 6.4,2.596 9.737,3.746c1.542,0 3.071,-0.083 4.625,-0.367c16.459,-3.379 31.663,-10.762 45.375,-20.533c2.65,-8.342 3.805,-17.062 3.805,-25.8c-2.605,1.446 -5.275,2.788 -7.938,4.025c-0.863,1.433 -1.921,2.888 -3.258,4.233c-8.609,8.43 -23.055,9.571 -36.192,7.484c-6.008,0.766 -12.233,1.05 -18.454,0.766l-1.442,6.792l0.183,10.467c0,4.025 1.338,7.066 3.559,9.187m-56.284,-43.637c8.513,10.95 18.471,20.625 29.675,28.583c0.096,-2.208 0.367,-4.408 0.846,-6.612c0.454,-2.492 1.059,-5.088 1.617,-7.855c-11.375,-2.708 -22.396,-7.57 -32.046,-14.116l-0.092,-0Zm24.009,-74.784c-8.988,1.338 -17.879,3.53 -26.504,7.092c-6.425,2.579 -10.905,7.108 -13.696,12.658c0.196,3.45 0.779,6.809 1.716,9.975c5.846,18.88 21.746,32.034 39.834,39.317c-2.192,-6.812 -2.4,-14.104 0.196,-20.046c-2.388,-10.166 -2.596,-21.187 -0.667,-31.658c-1.721,-5.754 -2.317,-11.671 -1.075,-17.338l0.196,0Zm97.537,11.584c-4.325,-2.109 -9.1,-3.846 -13.871,-5.079c6.305,2.787 11.384,6.258 15.48,11.237c-0,-1.742 -0.367,-3.542 -1.221,-5.292c-0.117,-0.279 -0.3,-0.566 -0.388,-0.75l0,-0.116Zm-60.675,51.304l19.825,-6.225c-5.475,-0.667 -10.837,-1.725 -15.921,-3.342l-3.904,9.567Zm-32.458,-5.333l-0.958,8.8c0.283,3.366 5.458,4.516 8.241,4.391c-2.958,-4 -5.446,-8.416 -7.283,-13.191m7.954,-76.071l-0.104,0.575c5.537,-3.938 12.437,-6.621 19.054,-7.679c4.388,-2.1 9.188,-3.634 13.983,-4.609c-3.941,-1.625 -7.77,-3.158 -11.412,-4.491c-11.483,-4.146 -28.117,-8.242 -40.467,-3.363c-15.533,6.229 -27.579,23.121 -31.983,40.758c11.871,-8.241 28.542,-11.512 42.496,-12.383c1.254,-1.812 2.679,-3.554 4.416,-5.167c1.121,-1.145 2.48,-2.195 3.813,-3.158l0.1,-0.583l0.104,0.1Zm63.167,157.266l90.337,-0.462l8.254,-0.479c27.38,-10.371 53.792,-23.784 79.238,-37.692l-75.983,-67.529c-0.392,2.521 -1.059,4.896 -1.825,7.196c-13.017,37.304 -43.734,65.596 -76.467,86.229c-2.4,1.537 -4.988,3.062 -7.642,4.6c-4.229,3.446 -9.216,6.146 -14.971,7.958c-0.283,0.088 -0.558,0.179 -0.858,0.3l-0.083,-0.121Zm-133.063,-11.2c27.1,5.85 53.817,9.392 77.921,11.2c-5.558,-4.195 -9.562,-10.154 -12.042,-16.762c-7.391,-4.992 -14.179,-10.375 -20.112,-15.638c-17.788,-15.841 -38.663,-39.712 -42.013,-65.212c-6.908,-14.692 -8.608,-31.663 -2.404,-49.492c4.4,-12.666 12.267,-25.916 22.509,-35.958c-59.534,4.696 -118.046,18.512 -174.484,38.058l-9.854,4.229l114.654,102.821c14.175,10.059 29.584,19.063 45.734,26.642l0.091,0.112Zm346.317,3.063c-1.421,-0.867 -2.775,-1.821 -4.192,-2.779l-22.991,-20.442c-15.225,9.604 -30.913,19.096 -47.1,27.813l74.283,-4.688l0,0.096Zm-4.112,-38.638l-3.93,3.255c-5.371,3.445 -10.804,6.895 -16.291,10.437c8.741,8.921 17.916,17.367 27.791,24.771l36.067,-2.338l-43.717,-36.125l0.079,0Zm-94.575,-78.166c22.788,27.212 43.259,57.729 67.205,84.1c6.325,-3.542 12.637,-6.992 18.745,-10.546l1.538,-1.171l-87.583,-72.3l0.095,-0.083Zm-429.566,-35.113l10.721,9.596c59.362,-32.312 131.133,-62.625 209.625,-64.35c-29.3,-1.929 -58.496,0.979 -86.334,9.975c-38.691,12.563 -88.058,26.567 -134.012,44.779m-53.792,-48.246l48.917,43.846c72.271,-30.787 164.333,-47.475 221.175,-52.554c81.196,-7.196 142.912,14.858 207.141,68.088l99.838,91.67l116.392,-85.533l0.079,0.079l-110.25,91.221l43.933,40.383l2.396,-0.212l0.758,-0.175l0,-0.117c0.384,0 0.271,0.204 0,0.292l-2.871,0.487l51.584,47.375l-0.096,0.192l-56.575,-46.812l-31.375,5.212c2.492,1.217 5.062,2.183 7.867,2.867l-0,0.183c-3.471,-0.5 -6.734,-1.446 -9.775,-2.792l-72.655,12.005l-38.487,3.937c-37.233,17.354 -76.483,29.521 -117.333,30.1c-45.855,0.675 -93.342,-14.192 -134.575,-37.321c-70.455,-22.233 -143.013,-63.008 -170.359,-132.337c21.884,50.146 70.396,81.725 124.675,101.2l-110.816,-111.363l-96.392,41.713c24.137,-14.275 53.404,-33.071 86.737,-51.5l-10.354,-10.438c-27.566,11.117 -53.687,23.767 -75.233,38.429c18.292,-16.487 42.996,-30.791 70.825,-42.933l-45.171,-45.467l0,0.275Z" style="fill:#383739;fill-rule:nonzero;"></path><path d="M1202.84,275.63l-5.2,0l-0,-12.595l5.6,-0c6,-0 8.2,2.633 8.2,6.204c-0,4.133 -3.2,6.391 -8.6,6.391m17.604,-6.766c0,-9.025 -7.404,-12.221 -15.804,-12.221l-15.204,-0l-0,38.167l8.204,-0l-0,-13.163l8.2,0l7,13.163l9.2,-0l-9.2,-15.609c4.6,-1.5 7.604,-5.829 7.604,-10.337m-16.404,37.408c-16.8,0 -29.8,-12.217 -29.8,-30.079c-0,-17.671 13,-30.267 29.8,-30.267c16.8,0 29.604,12.596 29.604,30.267c-0,17.862 -12.804,30.079 -29.604,30.079m-0,-67.112c-20.8,-0 -37.804,15.037 -37.804,37.033c-0,22 17.004,37.037 37.804,37.037c20.6,0 37.604,-15.037 37.604,-37.037c-0,-21.996 -17.004,-37.033 -37.604,-37.033" style="fill:#d22229;fill-rule:nonzero;"></path></g></svg>